<svg width="184" height="35" viewBox="0 0 184 35" fill="none" xmlns="http://www.w3.org/2000/svg">
    <path d="M34.5392 9.32019C36.1392 11.0702 36.9392 13.5202 36.9392 16.6802C36.9392 19.8402 36.1392 22.4202 34.5392 24.2202C32.9392 26.0202 30.6792 26.9202 27.7692 26.9202C24.8592 26.9202 22.5792 26.0302 20.9292 24.2602C19.2792 22.4902 18.4492 20.0202 18.4492 16.8702C18.4492 13.7202 19.2892 11.2602 20.9592 9.44019C22.6392 7.62019 24.9192 6.7002 27.7992 6.7002C30.6792 6.7002 32.9292 7.58019 34.5292 9.32019H34.5392ZM23.3392 11.3502C22.2592 12.7102 21.7092 14.5202 21.7092 16.7802C21.7092 19.0402 22.2492 20.9502 23.3192 22.2702C24.3892 23.5902 25.8892 24.2502 27.8092 24.2502C29.7292 24.2502 31.1092 23.5802 32.1492 22.2502C33.1992 20.9202 33.7192 19.0802 33.7192 16.7402C33.7192 14.4002 33.1792 12.6702 32.1092 11.3202C31.0392 9.98019 29.5792 9.31019 27.7292 9.31019C25.8792 9.31019 24.4092 9.99019 23.3292 11.3402L23.3392 11.3502Z" fill="#008080"/>
    <path d="M57.1995 24.2602C57.1995 25.9102 57.1095 27.1902 56.9395 28.0902C56.7695 28.9902 56.4495 29.8302 55.9795 30.6202C54.5695 32.9402 52.0595 34.0902 48.4395 34.0902C46.2995 34.0902 44.4795 33.6502 43.0095 32.7802C41.5395 31.9102 40.6695 30.4702 40.4195 28.4702H43.6395C44.0095 30.5902 45.6495 31.6502 48.5595 31.6502C50.5095 31.6502 51.9195 31.1602 52.7895 30.1702C53.6695 29.1802 54.1295 27.5902 54.1795 25.4002L54.2195 23.0702C53.0095 25.3902 50.9895 26.5502 48.1595 26.5502C45.5995 26.5502 43.5595 25.6702 42.0395 23.9302C40.5195 22.1902 39.7695 19.8302 39.7695 16.8702C39.7695 14.0802 40.5195 11.7002 42.0295 9.72023C43.5395 7.74023 45.6295 6.74023 48.3195 6.74023C49.6495 6.74023 50.8395 7.02024 51.8895 7.59024C52.9395 8.16024 53.7595 8.97024 54.3495 10.0302V7.26023H57.2295V24.2702L57.1995 24.2602ZM44.4295 11.4502C43.4595 12.7702 42.9695 14.5902 42.9695 16.9002C42.9695 18.9902 43.4795 20.6802 44.4895 21.9502C45.4995 23.2202 46.8395 23.8502 48.5195 23.8502C50.1995 23.8502 51.6395 23.1802 52.6395 21.8502C53.6395 20.5202 54.1395 18.6902 54.1395 16.3802C54.1395 14.2102 53.6395 12.5202 52.6395 11.3002C51.6395 10.0802 50.2395 9.47023 48.4395 9.47023C46.7395 9.47023 45.3995 10.1302 44.4295 11.4502Z" fill="#008080"/>
    <path d="M69.8892 26.9602C67.0792 26.9602 64.8792 26.0802 63.2892 24.3402C61.6992 22.6002 60.9092 20.1602 60.9092 17.0602C60.9092 13.9602 61.7292 11.4802 63.3692 9.57019C65.0092 7.66019 67.1492 6.7002 69.7792 6.7002C72.7092 6.7002 74.8892 7.69019 76.3092 9.68019C77.7292 11.6602 78.4392 14.1702 78.4392 17.2002V17.6402H64.0992L64.0592 17.8602C64.0592 19.8802 64.5892 21.4702 65.6492 22.6302C66.7092 23.7902 68.1592 24.3702 70.0092 24.3702C71.3892 24.3702 72.4792 24.0502 73.2792 23.4102C74.0792 22.7702 74.6992 21.7302 75.1492 20.3002H78.2192C77.2592 24.7402 74.4892 26.9602 69.8992 26.9602H69.8892ZM73.5092 10.8202C72.5492 9.80019 71.2792 9.2902 69.6992 9.2902C68.1192 9.2902 66.8992 9.81019 65.8892 10.8402C64.8792 11.8702 64.2792 13.2902 64.0792 15.0902H75.1692C75.0192 13.2702 74.4692 11.8402 73.5092 10.8202Z" fill="#008080"/>
    <path d="M89.9288 9.83984H86.1188V20.9698C86.1188 21.5898 86.1188 21.9898 86.1388 22.1898C86.1488 22.3898 86.2188 22.6498 86.3388 22.9798C86.4588 23.3098 86.6688 23.5298 86.9688 23.6298C87.2688 23.7298 87.6788 23.7798 88.2288 23.7798C88.6988 23.7798 89.2688 23.7398 89.9288 23.6698V26.3698C89.0388 26.4698 88.2388 26.5198 87.5288 26.5198C86.6388 26.5198 85.8988 26.4198 85.3088 26.2198C84.7188 26.0198 84.2688 25.7998 83.9588 25.5498C83.6488 25.2998 83.4188 24.8698 83.2788 24.2398C83.1288 23.6098 83.0488 23.0798 83.0188 22.6498C82.9888 22.2198 82.9788 21.4998 82.9788 20.4898V9.83984H79.7588V7.24984H82.9788V1.58984H86.1188V7.24984H89.9288V9.83984Z" fill="#008080"/>
    <path d="M96.5492 9.94977C97.9592 7.82977 100.039 6.76977 102.799 6.76977C107.089 6.76977 109.229 8.93977 109.229 13.2798V26.3298H106.089V14.0198C106.089 12.5698 105.789 11.4498 105.179 10.6698C104.579 9.88977 103.489 9.49977 101.909 9.49977C99.9892 9.49977 98.6092 10.1198 97.7892 11.3498C96.9592 12.5798 96.5492 14.3498 96.5492 16.6398V26.3298H93.4092V0.00976562H96.5492V9.95977V9.94977Z" fill="#008080"/>
    <path d="M121.949 26.9592C119.139 26.9592 116.939 26.0792 115.349 24.3392C113.759 22.5992 112.969 20.1592 112.969 17.0592C112.969 13.9592 113.789 11.4792 115.429 9.56922C117.069 7.65922 119.209 6.69922 121.839 6.69922C124.769 6.69922 126.949 7.68922 128.369 9.67922C129.789 11.6592 130.499 14.1692 130.499 17.1992V17.6392H116.159L116.119 17.8592C116.119 19.8792 116.649 21.4692 117.709 22.6292C118.769 23.7892 120.219 24.3692 122.069 24.3692C123.449 24.3692 124.539 24.0492 125.339 23.4092C126.139 22.7692 126.759 21.7292 127.209 20.2992H130.279C129.319 24.7392 126.549 26.9592 121.959 26.9592H121.949ZM125.569 10.8192C124.609 9.79922 123.339 9.28922 121.759 9.28922C120.179 9.28922 118.959 9.80922 117.949 10.8392C116.939 11.8692 116.339 13.2892 116.139 15.0892H127.229C127.079 13.2692 126.529 11.8392 125.569 10.8192Z" fill="#008080"/>
    <path d="M142.319 8.77H141.769C139.579 8.77 137.839 9.62 136.559 11.32C135.869 12.23 135.429 13.21 135.249 14.26C135.059 15.31 134.969 16.61 134.969 18.16V26.33H133.489V7.4H134.929V12.39C135.619 10.57 136.539 9.25 137.699 8.45C138.859 7.65 140.399 7.25 142.319 7.25V8.77Z" fill="#008080"/>
    <path d="M145.58 3.73977H144.1V0.00976562H145.58V3.73977ZM145.58 26.3298H144.1V7.39977H145.58V26.3298Z" fill="#008080"/>
    <path d="M162.289 12.9099C162.139 11.2299 161.579 10.0299 160.609 9.28989C159.639 8.54989 158.249 8.17989 156.449 8.17989C154.869 8.17989 153.619 8.50989 152.699 9.17989C151.779 9.84989 151.309 10.7499 151.309 11.8799C151.309 12.1799 151.339 12.4499 151.399 12.6899C151.459 12.9399 151.539 13.1499 151.619 13.3399C151.709 13.5299 151.849 13.7099 152.049 13.8899C152.249 14.0799 152.409 14.2199 152.529 14.3299C152.649 14.4399 152.869 14.5599 153.179 14.6999C153.489 14.8399 153.719 14.9299 153.859 14.9999C154.009 15.0599 154.279 15.1399 154.669 15.2399C155.059 15.3399 155.339 15.4099 155.499 15.4599C155.659 15.5099 155.969 15.5799 156.419 15.6799C156.879 15.7799 157.179 15.8399 157.329 15.8699C158.239 16.0699 158.899 16.2199 159.289 16.3299C159.679 16.4399 160.279 16.6499 161.059 16.9599C161.849 17.2699 162.429 17.5899 162.819 17.9199C163.199 18.2499 163.549 18.7099 163.869 19.3099C164.189 19.8999 164.349 20.5799 164.349 21.3399C164.349 23.0199 163.669 24.3699 162.299 25.3899C160.929 26.4099 159.129 26.9199 156.879 26.9199C154.489 26.9199 152.599 26.3099 151.219 25.0899C149.839 23.8699 149.149 22.1599 149.149 19.9699H150.629C150.629 21.8399 151.179 23.2499 152.279 24.1799C153.379 25.1199 154.939 25.5899 156.959 25.5899C158.709 25.5899 160.129 25.2099 161.229 24.4399C162.329 23.6799 162.869 22.6699 162.869 21.4099C162.869 20.8699 162.739 20.3799 162.479 19.9499C162.219 19.5199 161.939 19.1699 161.649 18.9099C161.359 18.6499 160.899 18.4099 160.299 18.1699C159.699 17.9299 159.239 17.7799 158.929 17.7099C158.619 17.6399 158.139 17.5199 157.469 17.3799L157.319 17.3099C157.319 17.3099 157.219 17.3099 157.149 17.2899C157.089 17.2799 157.029 17.2699 156.979 17.2699C156.809 17.2199 156.469 17.1399 155.959 17.0299C155.449 16.9199 155.079 16.8399 154.829 16.7899C154.579 16.7399 154.229 16.6499 153.759 16.5099C153.289 16.3699 152.929 16.2499 152.689 16.1199L151.769 15.6799C151.399 15.4799 151.119 15.2699 150.919 15.0299C150.719 14.7899 150.519 14.5299 150.309 14.2399C150.099 13.9499 149.949 13.6099 149.869 13.2399C149.779 12.8699 149.739 12.4599 149.739 12.0199C149.739 10.4199 150.349 9.15989 151.569 8.24989C152.789 7.33989 154.489 6.87988 156.649 6.87988C158.809 6.87988 160.569 7.38989 161.839 8.40989C163.109 9.42989 163.759 10.9299 163.779 12.8999H162.259L162.289 12.9099Z" fill="#008080"/>
    <path d="M180.999 25.0199C179.569 26.3099 177.759 26.9599 175.569 26.9599C172.959 26.9599 170.869 26.0599 169.299 24.2599C167.739 22.4599 166.949 20.0599 166.949 17.0499C166.949 14.0399 167.739 11.5999 169.329 9.70988C170.919 7.81988 172.999 6.87988 175.559 6.87988C178.119 6.87988 180.269 7.81988 181.699 9.68988C183.129 11.5599 183.839 13.8799 183.839 16.6399V17.1599H168.499C168.499 19.5499 169.099 21.5699 170.289 23.2199C171.479 24.8699 173.249 25.6999 175.589 25.6999C177.319 25.6999 178.749 25.1999 179.899 24.1799C181.049 23.1599 181.799 21.7399 182.169 19.8899H183.649C183.299 22.0099 182.419 23.7199 180.989 25.0099L180.999 25.0199ZM180.579 10.4699C179.409 8.96988 177.739 8.21988 175.569 8.21988C173.399 8.21988 171.739 8.92989 170.579 10.3599C169.419 11.7899 168.729 13.6299 168.509 15.8699H182.339C182.339 13.7699 181.749 11.9799 180.579 10.4699Z" fill="#008080"/>
    <path d="M12.3696 0H8.88965V3.48H12.3696V0Z" fill="#008080"/>
    <path d="M16.8101 0H13.3301V3.48H16.8101V0Z" fill="#008080"/>
    <path d="M21.2495 0H17.7695V3.48H21.2495V0Z" fill="#008080"/>
    <path d="M3.48 0H0V3.48H3.48V0Z" fill="#008080"/>
    <path d="M7.92043 0H4.44043V3.48H7.92043V0Z" fill="#008080"/>
    <path d="M12.3696 8.88965H8.88965V12.3696H12.3696V8.88965Z" fill="#008080"/>
    <path d="M12.3696 13.3301H8.88965V16.8101H12.3696V13.3301Z" fill="#008080"/>
    <path d="M12.3696 17.7695H8.88965V21.2495H12.3696V17.7695Z" fill="#008080"/>
    <path d="M12.3696 22.21H8.88965V25.69H12.3696V22.21Z" fill="#008080"/>
    <path d="M12.3696 4.43945H8.88965V7.91945H12.3696V4.43945Z" fill="#008080"/>
    </svg>
    